<?xml version="1.0" encoding="UTF-8" standalone="no"?>
<svg
   viewBox="-25.6 -51.2 433.56731 433.501"
   x="0px"
   y="0px"
   version="1.1"
   id="svg8"
   sodipodi:docname="noun-back-4050071.svg"
   width="433.56732"
   height="433.50101"
   inkscape:version="1.4.2 (ebf0e940, 2025-05-08)"
   xmlns:inkscape="http://www.inkscape.org/namespaces/inkscape"
   xmlns:sodipodi="http://sodipodi.sourceforge.net/DTD/sodipodi-0.dtd"
   xmlns="http://www.w3.org/2000/svg"
   xmlns:svg="http://www.w3.org/2000/svg">
  <defs
     id="defs8" />
  <sodipodi:namedview
     id="namedview8"
     pagecolor="#ffffff"
     bordercolor="#000000"
     borderopacity="0.25"
     inkscape:showpageshadow="2"
     inkscape:pageopacity="0.0"
     inkscape:pagecheckerboard="0"
     inkscape:deskcolor="#d1d1d1"
     inkscape:zoom="1.4597801"
     inkscape:cx="216.81348"
     inkscape:cy="255.17543"
     inkscape:window-width="976"
     inkscape:window-height="1186"
     inkscape:window-x="0"
     inkscape:window-y="25"
     inkscape:window-maximized="0"
     inkscape:current-layer="svg8" />
  <g
     id="g7"
     transform="translate(-64.782018,-90.4479)">
    <path
       d="m 464.5239,323.8568 a 12.7892,12.7892 0 0 0 -16.4438,7.396 46.8852,46.8852 0 0 1 -13.3726,18.988 c -18.7016,15.9126 -30.8872,36.2413 -35.2534,58.782 L 390.041,457.57 a 12.750902,12.750902 0 1 0 25.0352,4.856 l 9.4131,-48.5513 c 3.2539,-16.8049 12.5009,-32.0908 26.7451,-44.2141 a 72.3808,72.3808 0 0 0 20.6855,-29.36 12.75,12.75 0 0 0 -7.396,-16.4438 z"
       id="path1" />
    <path
       d="M 112.5542,409.0228 C 108.18,386.4655 95.9858,366.141 77.3008,350.245 A 46.8669,46.8669 0 0 1 63.92,331.2528 a 12.75,12.75 0 1 0 -23.84,9.0479 72.3627,72.3627 0 0 0 20.6938,29.364 c 14.2359,12.1108 23.4829,27.3967 26.7451,44.21 l 9.4048,48.5472 a 12.750112,12.750112 0 0 0 25.0352,-4.8477 z"
       id="path2" />
    <path
       d="m 256,302.7479 a 12.7506,12.7506 0 0 0 -12.75,12.75 v 119 a 12.75,12.75 0 1 0 25.5,0 v -119 A 12.7506,12.7506 0 0 0 256,302.7479 Z"
       id="path3" />
    <path
       d="m 412.146,194.1779 a 12.7527,12.7527 0 0 0 -23.292,-10.3926 c -11.9324,26.7243 -36.1665,40.5856 -52.104,47.1318 v -64.1692 a 12.75,12.75 0 1 0 -25.5,0 v 119 a 12.75,12.75 0 1 0 25.5,0 v -27.6042 c 18.4713,-6.0098 57.1135,-23.016 75.396,-63.9658 z"
       id="path4" />
    <path
       d="m 188,153.9979 a 12.7506,12.7506 0 0 0 -12.75,12.75 v 64.17 c -15.9354,-6.5463 -40.1737,-20.41 -52.104,-47.1329 a 12.7527,12.7527 0 0 0 -23.292,10.3926 c 18.2825,40.95 56.9247,57.956 75.396,63.9658 v 27.6042 a 12.75,12.75 0 0 0 25.5,0 v -119 A 12.7506,12.7506 0 0 0 188,153.9979 Z"
       id="path5" />
    <path
       d="m 343.4238,103.9982 113.48,28.3679 a 12.75,12.75 0 0 0 6.1924,-24.7363 l -113.48,-28.368 A 16.9562,16.9562 0 0 1 336.75,62.7848 V 51.9979 a 12.75,12.75 0 0 0 -25.5,0 v 10.7869 a 42.4176,42.4176 0 0 0 32.1738,41.2134 z"
       id="path6" />
    <path
       d="m 188,39.2479 a 12.7506,12.7506 0 0 0 -12.75,12.75 v 10.7869 a 16.9562,16.9562 0 0 1 -12.8662,16.477 L 48.9038,107.63 a 12.75,12.75 0 1 0 6.1924,24.7363 L 168.5679,103.9984 A 42.4124,42.4124 0 0 0 200.75,62.7848 V 51.9979 A 12.7506,12.7506 0 0 0 188,39.2479 Z"
       id="path7" />
  </g>
</svg>
