<?xml version="1.0"?>
<svg xmlns="http://www.w3.org/2000/svg" viewBox="0 0 32 32">
    <path style="text-indent:0;text-align:start;line-height:normal;text-transform:none;block-progression:tb;-inkscape-font-specification:Bitstream Vera Sans" d="M 19.125 3.9375 L 18.78125 4.03125 C 18.78125 4.03125 17.880309 4.2248954 16.96875 4.78125 C 16.057191 5.3376046 15 6.403284 15 8 C 15 9.596716 16.057191 10.662395 16.96875 11.21875 C 17.392139 11.477158 17.484523 11.444528 17.8125 11.5625 C 17.457522 12.537978 16.82826 14.915535 17.375 18.25 C 16.596428 16.913486 15.151988 16 13.5 16 C 12.775732 16 12.118397 16.229097 11.375 16.53125 C 10.631603 16.833403 9.8465298 17.239773 9.125 17.625 C 7.6819405 18.395454 6.46875 19.15625 6.46875 19.15625 L 6 19.4375 L 6 20 L 6 25 L 6 25.625 L 6.5625 25.90625 C 6.5625 25.90625 10.760778 28 16 28 C 21.239222 28 25.4375 25.90625 25.4375 25.90625 L 26 25.625 L 26 25 C 26 20.000189 25.440676 15.656782 24.78125 12.4375 C 24.451537 10.827859 24.118031 9.5104101 23.78125 8.5 C 23.444469 7.4895899 23.249194 6.8962789 22.75 6.34375 C 22.174295 5.706535 21.36821 5.1867511 20.6875 4.78125 C 20.00679 4.3757489 19.4375 4.09375 19.4375 4.09375 L 19.125 3.9375 z M 18.90625 6.09375 C 19.096806 6.192548 19.264529 6.2480346 19.6875 6.5 C 20.29854 6.8639989 20.992705 7.371465 21.25 7.65625 C 21.16731 7.564721 21.571188 8.2135038 21.875 9.125 C 22.178812 10.036496 22.527588 11.300266 22.84375 12.84375 C 23.443881 15.773555 23.918128 19.769889 23.96875 24.3125 C 23.21048 24.657768 20.153849 26 16 26 C 11.82083 26 8.7293015 24.645869 8 24.3125 L 8 20.5625 C 8.3250419 20.360677 8.9512738 19.968287 10.0625 19.375 C 10.74572 19.010227 11.48446 18.666597 12.125 18.40625 C 12.76554 18.145903 13.343268 18 13.5 18 C 14.767865 18 15.792949 18.940712 15.96875 20.15625 L 16.09375 21 L 16.9375 21 L 18.71875 21 L 20.15625 21 L 19.65625 19.65625 C 18.192962 15.635813 19.90625 11.375 19.90625 11.375 L 20.375 10.28125 L 19.21875 10.03125 C 19.21875 10.03125 18.619691 9.8903954 18.03125 9.53125 C 17.442809 9.1721046 17 8.741284 17 8 C 17 7.258716 17.442809 6.8278954 18.03125 6.46875 C 18.466004 6.203405 18.703783 6.1521032 18.90625 6.09375 z" overflow="visible" font-family="Bitstream Vera Sans"/>
</svg>
