<?xml version="1.0" encoding="UTF-8" standalone="no"?>
<svg
   viewBox="-25.6 -51.2 433.484 433.50884"
   x="0px"
   y="0px"
   version="1.1"
   id="svg3"
   sodipodi:docname="biceps.svg"
   width="433.48401"
   height="433.50885"
   inkscape:version="1.4.2 (ebf0e940, 2025-05-08)"
   xmlns:inkscape="http://www.inkscape.org/namespaces/inkscape"
   xmlns:sodipodi="http://sodipodi.sourceforge.net/DTD/sodipodi-0.dtd"
   xmlns="http://www.w3.org/2000/svg"
   xmlns:svg="http://www.w3.org/2000/svg">
  <defs
     id="defs3" />
  <sodipodi:namedview
     id="namedview3"
     pagecolor="#ffffff"
     bordercolor="#000000"
     borderopacity="0.25"
     inkscape:showpageshadow="2"
     inkscape:pageopacity="0.0"
     inkscape:pagecheckerboard="0"
     inkscape:deskcolor="#d1d1d1"
     inkscape:zoom="1.4597801"
     inkscape:cx="216.81348"
     inkscape:cy="255.17543"
     inkscape:window-width="1480"
     inkscape:window-height="1186"
     inkscape:window-x="0"
     inkscape:window-y="25"
     inkscape:window-maximized="0"
     inkscape:current-layer="svg3" />
  <g
     id="g2"
     transform="translate(-64.87978,-90.458093)">
    <path
       d="m 460.0138,265.4108 c -36.9156,0 -72.4347,5.2108 -103.4858,15.0234 A 105.9244,105.9244 0 0 0 217.7638,255.5785 v -49.6677 h 55.2085 a 46.8445,46.8445 0 0 0 46.7915,-46.7915 V 96.2284 a 42.6019,42.6019 0 0 0 -21.25,-36.7973 l -22.23,-12.8372 A 54.9712,54.9712 0 0 0 210.0187,55.318 L 120.985,144.3522 A 88.5612,88.5612 0 0 0 100.424,176.41 L 43.5221,329.7792 A 67.97,67.97 0 0 0 84.91,417.61 c 48.3437,16.8713 130.6958,34.801 188.104,34.801 a 106.5613,106.5613 0 0 0 27.2432,-3.5278 c 18.76,-4.968 37.8432,-5.1548 55.2251,-0.5728 a 377.2791,377.2791 0 0 0 56.5511,10.0481 l 1.8866,5.6615 a 12.748,12.748 0 1 0 24.1884,-8.06 l -4.4409,-13.3207 -0.0249,-0.0809 -12.5346,-37.599 a 12.748,12.748 0 1 0 -24.1884,8.06 l 6.2069,18.6228 a 340.1931,340.1931 0 0 1 -41.1366,-7.9854 c -21.6319,-5.7109 -45.2227,-5.5076 -68.2573,0.5728 a 80.9309,80.9309 0 0 1 -20.7188,2.6811 c -54.5942,0 -133.3354,-17.195 -179.7036,-33.3774 A 42.4632,42.4632 0 0 1 67.4284,338.6527 L 124.33,185.2792 a 63.2193,63.2193 0 0 1 14.6841,-22.8935 l 89.0342,-89.0384 a 29.4661,29.4661 0 0 1 35.4858,-4.6733 l 22.23,12.8413 a 17.0273,17.0273 0 0 1 8.5,14.7131 v 62.8909 a 21.3166,21.3166 0 0 1 -21.2915,21.2915 h -67.9588 a 12.7506,12.7506 0 0 0 -12.75,12.75 v 84.1253 a 105.7066,105.7066 0 0 0 -25.5,68.8747 12.75,12.75 0 0 0 25.5,0 80.761,80.761 0 0 1 157.8643,-24.0183 12.752,12.752 0 0 0 24.3545,-7.57 107.7782,107.7782 0 0 0 -4.441,-11.6035 c 27.183,-7.8857 57.94,-12.0579 89.9722,-12.0579 a 12.75,12.75 0 1 0 0,-25.5 z"
       id="path1" />
    <path
       d="m 311.7286,338.9474 a 200.9041,200.9041 0 0 1 -75.645,6.6158 12.75,12.75 0 1 0 -2.6728,25.3589 222.1685,222.1685 0 0 0 23.2092,1.2079 c 6.5908,0 13.2148,-0.2864 19.8222,-0.8674 a 225.1344,225.1344 0 0 0 42.3091,-7.8028 12.7492,12.7492 0 1 0 -7.0225,-24.5122 z"
       id="path2" />
  </g>
</svg>
