<?xml version="1.0" encoding="UTF-8" standalone="no"?>
<svg
   viewBox="-25.6 -51.2 434.74947 433.50381"
   x="0px"
   y="0px"
   version="1.1"
   id="svg6"
   sodipodi:docname="chest.svg"
   width="434.74948"
   height="433.50381"
   inkscape:version="1.4.2 (ebf0e940, 2025-05-08)"
   xmlns:inkscape="http://www.inkscape.org/namespaces/inkscape"
   xmlns:sodipodi="http://sodipodi.sourceforge.net/DTD/sodipodi-0.dtd"
   xmlns="http://www.w3.org/2000/svg"
   xmlns:svg="http://www.w3.org/2000/svg">
  <defs
     id="defs6" />
  <sodipodi:namedview
     id="namedview6"
     pagecolor="#ffffff"
     bordercolor="#000000"
     borderopacity="0.25"
     inkscape:showpageshadow="2"
     inkscape:pageopacity="0.0"
     inkscape:pagecheckerboard="0"
     inkscape:deskcolor="#d1d1d1"
     inkscape:zoom="1.4597801"
     inkscape:cx="217.49852"
     inkscape:cy="255.17543"
     inkscape:window-width="976"
     inkscape:window-height="1186"
     inkscape:window-x="0"
     inkscape:window-y="25"
     inkscape:window-maximized="0"
     inkscape:current-layer="svg6" />
  <g
     id="g5"
     transform="translate(-64.226576,-90.4479)">
    <path
       d="m 244.4087,394.1478 a 12.7488,12.7488 0 0 0 -3.5942,25.2427 c 1.61,0.2407 39.5366,6.3376 47.1816,43.1973 a 12.750229,12.750229 0 0 0 24.9688,-5.18 c -11.3306,-54.6521 -66.2319,-62.9362 -68.5562,-63.26 z"
       id="path1" />
    <path
       d="m 189.8726,394.1478 c -2.3242,0.3238 -57.2173,8.6079 -68.5478,63.2561 a 12.75018,12.75018 0 1 0 24.9687,5.18 c 7.62,-36.7641 45.3721,-42.9192 47.1567,-43.1889 a 12.75,12.75 0 0 0 -3.5776,-25.2469 z"
       id="path2" />
    <path
       d="m 467.1353,398.2733 c -21.6443,-16.5507 -43.34,-47.44 -50.6846,-59.1949 a 124.5542,124.5542 0 0 0 14.5513,-58.5766 v -24.5039 a 12.75,12.75 0 0 0 -25.5,0 v 24.5039 a 99.3932,99.3932 0 0 1 -19.2661,59.002 50.7434,50.7434 0 0 1 -51.8716,19.6272 l -88.7686,-19.4778 a 20.109,20.109 0 0 1 -15.705,-19.5193 v -89.719 a 25.5441,25.5441 0 0 1 15.9209,-23.6572 c 24.122,-9.9319 62.09,-21.773 106.0092,-21.773 a 12.75,12.75 0 0 0 0,-25.5 c -48.0864,0 -89.4741,12.8829 -115.7211,23.6946 a 51.2772,51.2772 0 0 0 -18.959,13.5448 51.2255,51.2255 0 0 0 -18.959,-13.5448 C 171.9429,172.3676 130.5635,159.4847 82.4688,159.4847 a 12.75,12.75 0 0 0 0,25.5 c 43.9277,0 81.8872,11.8411 106.001,21.773 a 25.54,25.54 0 0 1 15.9209,23.6572 v 89.719 a 20.1016,20.1016 0 0 1 -15.6968,19.5193 L 99.917,359.131 A 50.8,50.8 0 0 1 58.9278,350.4318 12.747323,12.747323 0 1 0 43.82,370.9679 c 0.3486,0.2563 0.7408,0.4275 1.0915,0.6765 l 13.7337,90.271 a 12.753819,12.753819 0 0 0 25.2177,-3.835 L 72.56,383.7843 a 76.07,76.07 0 0 0 16.475,2.03 76.2773,76.2773 0 0 0 16.3443,-1.7722 l 88.7768,-19.4778 a 45.1025,45.1025 0 0 0 22.9869,-13.1816 45.1234,45.1234 0 0 0 22.9911,13.1816 l 88.7686,19.4778 a 74.8535,74.8535 0 0 0 32.8005,-0.0934 L 350.418,458.08 a 12.7539,12.7539 0 0 0 25.2178,3.835 l 13.7461,-90.3032 a 75.8348,75.8348 0 0 0 11.3866,-9.8 c 2.3968,3.42 5.18,7.2539 8.51,11.6958 10.1186,13.493 25.6743,32.261 42.3671,45.0193 a 12.748911,12.748911 0 0 0 15.4893,-20.2539 z m -52.7992,-55.4471 a 11.2626,11.2626 0 0 1 -0.3466,1.2243 c 0.1536,-0.3849 0.2076,-0.7875 0.3217,-1.1807 z"
       id="path3" />
    <path
       d="m 309.0884,127.8712 65.7173,8.2136 a 106.751,106.751 0 0 1 61.94,30.2937 l 14.8667,14.8709 A 12.748817,12.748817 0 1 0 469.6421,163.22 L 454.7754,148.3491 A 132.33,132.33 0 0 0 377.9683,110.784 l -65.709,-8.2137 A 21.2857,21.2857 0 0 1 293.6407,81.4822 V 51.9979 a 12.75,12.75 0 0 0 -25.5,0 v 29.4844 a 46.8291,46.8291 0 0 0 40.9477,46.3889 z"
       id="path4" />
    <path
       d="m 51.3741,137.1847 a 12.9419,12.9419 0 0 0 2.2827,-0.2075 c 1.9258,-0.3487 3.86,-0.6475 5.8271,-0.8924 l 65.709,-8.2136 A 46.8292,46.8292 0 0 0 166.1407,81.4823 V 51.9979 a 12.75,12.75 0 1 0 -25.5,0 V 81.4823 A 21.2857,21.2857 0 0 1 122.022,102.57 l -65.6841,8.21 c -2.4238,0.2988 -4.8227,0.6724 -7.2133,1.104 a 12.7517,12.7517 0 0 0 2.2495,25.3008 z"
       id="path5" />
  </g>
</svg>
