<?xml version="1.0" encoding="UTF-8" standalone="no"?>
<!-- Created with Inkscape (http://www.inkscape.org/) -->

<svg
   width="135.05054mm"
   height="94.74865mm"
   viewBox="0 0 135.05054 94.74865"
   version="1.1"
   id="svg1"
   xml:space="preserve"
   inkscape:version="1.4.2 (ebf0e940, 2025-05-08)"
   sodipodi:docname="hips.svg"
   xmlns:inkscape="http://www.inkscape.org/namespaces/inkscape"
   xmlns:sodipodi="http://sodipodi.sourceforge.net/DTD/sodipodi-0.dtd"
   xmlns="http://www.w3.org/2000/svg"
   xmlns:svg="http://www.w3.org/2000/svg"><sodipodi:namedview
     id="namedview1"
     pagecolor="#ffffff"
     bordercolor="#000000"
     borderopacity="0.25"
     inkscape:showpageshadow="2"
     inkscape:pageopacity="0.0"
     inkscape:pagecheckerboard="0"
     inkscape:deskcolor="#d1d1d1"
     inkscape:document-units="mm"
     inkscape:zoom="0.89887065"
     inkscape:cx="114.58823"
     inkscape:cy="455.57167"
     inkscape:window-width="976"
     inkscape:window-height="1186"
     inkscape:window-x="646"
     inkscape:window-y="168"
     inkscape:window-maximized="0"
     inkscape:current-layer="layer1" /><defs
     id="defs1" /><g
     inkscape:label="Layer 1"
     inkscape:groupmode="layer"
     id="layer1"
     transform="translate(-13.538165,-28.054549)"><g
       id="g4"
       transform="matrix(0.26458333,0,0,0.26458333,13.336293,7.6893382)"><g
         id="g3"><path
           d="m 510.739,175.878 c -0.013,-0.237 -0.03,-0.474 -0.054,-0.71 C 503.72,104.401 461.148,70.767 387.579,77.93 c -0.194,0.019 -0.389,0.041 -0.583,0.067 -15.121,2.032 -27.255,7.062 -37.298,13.772 -5.822,-6.097 -17.532,-16.294 -33.215,-14.613 -10.76,1.149 -19.141,7.26 -27.246,13.168 -9.78,7.131 -19.019,13.866 -33.236,13.866 -14.217,0 -23.456,-6.735 -33.236,-13.866 -8.105,-5.908 -16.486,-12.019 -27.246,-13.168 -15.705,-1.684 -27.4,8.515 -33.217,14.613 -10.043,-6.71 -22.177,-11.74 -37.297,-13.772 -0.194,-0.026 -0.389,-0.049 -0.583,-0.067 C 50.858,70.777 8.279,104.402 1.314,175.168 c -0.023,0.236 -0.041,0.473 -0.054,0.71 -1.562,29.082 -0.831,70.697 23.432,96.21 5.967,6.275 12.99,11.213 21.006,14.82 -4.759,23.003 -6.188,43.603 -4.235,61.561 4.229,38.88 24.571,66.31 58.826,79.325 0.479,0.182 0.966,0.34 1.459,0.476 16.531,4.524 31.194,6.806 44.481,6.806 19.138,0 35.417,-4.733 50.294,-14.314 16.169,-10.414 30.169,-26.076 45.055,-51.081 4.612,0.33 9.4,0.52 14.421,0.52 5.021,0 9.809,-0.19 14.421,-0.52 14.886,25.005 28.886,40.667 45.055,51.081 14.878,9.582 31.154,14.314 50.294,14.314 13.285,0 27.953,-2.282 44.481,-6.806 0.493,-0.136 0.98,-0.294 1.459,-0.476 34.255,-13.016 54.597,-40.445 58.826,-79.325 1.953,-17.959 0.524,-38.56 -4.236,-61.563 8.018,-3.606 15.04,-8.543 21.005,-14.817 11.623,-12.219 26.694,-35.486 23.435,-96.211 z m -204.887,79.949 c 0,13.602 -21.678,28.756 -52.784,28.756 -31.106,0 -52.784,-15.154 -52.784,-28.756 0,-3.601 1.532,-7.307 4.345,-10.813 13.574,12.131 31.415,18.92 50.357,18.919 0.338,0 0.676,-0.002 1.015,-0.006 17.653,0.23 34.357,-5.429 47.638,-15.794 1.442,2.546 2.213,5.146 2.213,7.694 z M 183.431,116.079 c 0.073,-0.079 0.146,-0.159 0.218,-0.24 5.166,-5.824 8.013,-6.91 8.471,-6.863 2.234,0.238 7.534,4.103 11.793,7.207 11.582,8.443 27.443,20.008 52.088,20.008 24.645,0 40.507,-11.564 52.088,-20.008 4.259,-3.104 9.559,-6.969 11.793,-7.207 0.384,-0.055 3.294,1.027 8.47,6.863 0.072,0.081 0.145,0.161 0.218,0.24 5.899,6.388 7.292,10.38 7.184,11.731 -0.249,3.127 -8.326,9.475 -13.152,13.268 -11.59,9.108 -27.462,21.583 -24.028,42.216 2.134,12.936 -1.003,25.06 -8.832,34.138 -8.125,9.423 -20.335,14.679 -33.484,14.495 -0.085,-0.001 -0.17,-0.002 -0.255,-0.002 -0.085,0 -0.17,10e-4 -0.255,0.002 -13.11,0.208 -25.359,-5.073 -33.484,-14.494 -7.829,-9.079 -10.966,-21.202 -8.836,-34.115 3.438,-20.656 -12.436,-33.131 -24.025,-42.239 -4.826,-3.793 -12.903,-10.142 -13.152,-13.268 -0.111,-1.352 1.28,-5.345 7.18,-11.732 z M 110.959,397.612 C 88.19,388.719 76.21,371.984 73.275,345.008 c -1.586,-14.582 -0.364,-31.661 3.611,-51.038 1.991,0.104 4.005,0.174 6.068,0.174 0.14,0 0.28,0 0.42,-0.001 7.23,0 13.489,1.003 19.189,2.82 -5.753,34.638 0.998,59.238 19.767,69.354 0.232,0.125 0.468,0.244 0.705,0.357 5.668,2.702 22.912,10.926 43.241,0.326 5.785,-3.015 11.403,-7.31 16.969,-13.002 7.268,3.752 15.305,7.077 24.321,9.727 -26.274,39.315 -51.324,46.132 -96.607,33.887 z m 21.631,-81.894 c 2.53,2.18 5.116,4.475 7.812,6.87 4.813,4.275 9.872,8.76 15.375,13.198 -1.602,1.263 -3.036,2.184 -4.292,2.839 -3.911,2.039 -7.363,2.551 -14.186,-0.604 -2.585,-1.684 -5.337,-8.804 -4.709,-22.303 z m 306.135,29.29 c -2.935,26.977 -14.915,43.712 -37.684,52.604 -45.287,12.245 -70.335,5.428 -96.607,-33.887 9.015,-2.65 17.053,-5.975 24.321,-9.726 5.566,5.692 11.184,9.986 16.969,13.001 20.328,10.598 37.573,2.376 43.241,-0.326 0.237,-0.113 0.473,-0.232 0.705,-0.357 18.771,-10.117 25.521,-34.719 19.767,-69.36 5.687,-1.813 11.929,-2.814 19.136,-2.814 0.142,0 0.279,0.001 0.421,0.001 2.081,0 4.112,-0.072 6.12,-0.177 3.975,19.378 5.197,36.458 3.611,51.041 z m -59.315,-29.29 c 0.628,13.499 -2.124,20.62 -4.71,22.304 -6.82,3.154 -10.273,2.645 -14.186,0.604 -1.257,-0.655 -2.691,-1.576 -4.292,-2.839 5.504,-4.438 10.562,-8.923 15.375,-13.198 2.697,-2.396 5.283,-4.692 7.813,-6.871 z m 84.708,-65.682 c -7.747,8.146 -19.232,12.108 -35.166,12.108 -0.107,0 -0.218,-0.001 -0.326,-0.001 -37.167,0 -58.067,18.565 -78.28,36.52 -22.889,20.332 -44.509,39.536 -94.346,39.536 -49.837,0 -71.457,-19.204 -94.346,-39.536 -20.213,-17.954 -41.113,-36.52 -78.334,-36.52 -16.056,0.012 -27.639,-3.906 -35.439,-12.107 -11.779,-12.387 -16.584,-35.967 -14.686,-72.083 2.729,-27.152 11.207,-45.641 25.915,-56.514 13.992,-10.346 34.82,-14.28 61.912,-11.689 9.802,1.358 17.644,4.6 24.307,9.181 -0.954,3.814 -1.284,7.613 -0.98,11.42 1.361,17.09 14.622,27.512 25.278,35.886 4.102,3.225 11.738,9.226 12.246,11.703 0,0 0,0.039 -0.019,0.146 -2.338,14.179 -0.902,27.93 4.024,40.269 -11.068,10.256 -17.595,23.216 -17.595,37.471 0,34.068 37.241,60.756 84.784,60.756 47.543,0 84.784,-26.688 84.784,-60.756 0,-12.413 -4.952,-23.841 -13.538,-33.36 6.355,-13.362 8.433,-28.61 5.828,-44.404 -0.01,-0.059 -0.013,-0.095 -0.016,-0.099 0.539,-2.525 8.153,-8.509 12.247,-11.727 10.656,-8.375 23.917,-18.797 25.278,-35.887 0.303,-3.807 -0.027,-7.606 -0.981,-11.42 6.663,-4.582 14.504,-7.823 24.307,-9.181 27.093,-2.589 47.919,1.344 61.912,11.689 14.708,10.873 23.187,29.361 25.915,56.514 1.9,36.119 -2.906,59.699 -14.685,72.085 z"
           id="path1" /><path
           d="m 117.179,217.679 c -11.318,-2.73 -19.57,-7.718 -23.233,-14.044 -2.845,-4.913 -2.4,-9.51 -1.526,-12.5 2.478,-8.482 -2.39,-17.367 -10.871,-19.846 -8.491,-2.48 -17.367,2.39 -19.846,10.871 -3.713,12.71 -2.097,26.031 4.552,37.511 5.725,9.885 17.904,22.96 43.421,29.115 1.261,0.305 2.522,0.45 3.765,0.45 7.221,0 13.773,-4.923 15.541,-12.252 2.071,-8.589 -3.213,-17.233 -11.803,-19.305 z"
           id="path2" /><path
           d="m 430.452,171.289 c -8.481,2.479 -13.349,11.363 -10.871,19.846 0.874,2.99 1.318,7.587 -1.526,12.5 -3.663,6.326 -11.915,11.313 -23.233,14.044 -8.59,2.072 -13.874,10.716 -11.802,19.306 1.768,7.33 8.319,12.252 15.541,12.252 1.241,0 2.504,-0.146 3.765,-0.45 25.517,-6.155 37.696,-19.23 43.421,-29.115 6.648,-11.479 8.265,-24.801 4.552,-37.511 -2.48,-8.482 -11.361,-13.349 -19.847,-10.872 z"
           id="path3" /></g></g></g></svg>
