<?xml version="1.0" encoding="UTF-8" standalone="no"?>
<svg
   viewBox="-25.6 -51.2 433.49959 433.56054"
   x="0px"
   y="0px"
   version="1.1"
   id="svg6"
   sodipodi:docname="legs.svg"
   width="433.4996"
   height="433.56055"
   inkscape:version="1.4.2 (ebf0e940, 2025-05-08)"
   xmlns:inkscape="http://www.inkscape.org/namespaces/inkscape"
   xmlns:sodipodi="http://sodipodi.sourceforge.net/DTD/sodipodi-0.dtd"
   xmlns="http://www.w3.org/2000/svg"
   xmlns:svg="http://www.w3.org/2000/svg">
  <defs
     id="defs6" />
  <sodipodi:namedview
     id="namedview6"
     pagecolor="#ffffff"
     bordercolor="#000000"
     borderopacity="0.25"
     inkscape:showpageshadow="2"
     inkscape:pageopacity="0.0"
     inkscape:pagecheckerboard="0"
     inkscape:deskcolor="#d1d1d1"
     inkscape:zoom="1.4597801"
     inkscape:cx="206.53796"
     inkscape:cy="255.17543"
     inkscape:window-width="1416"
     inkscape:window-height="1186"
     inkscape:window-x="265"
     inkscape:window-y="70"
     inkscape:window-maximized="0"
     inkscape:current-layer="svg6" />
  <g
     id="g5"
     transform="translate(-64.85,-90.447211)">
    <path
       d="m 438.2354,48.4161 a 12.748389,12.748389 0 0 0 -24.4708,7.16 c 0.3321,1.145 33.4854,116.4139 33.4854,268.4218 0,71.86 -16.3774,132.0032 -16.5352,132.6009 a 12.7473,12.7473 0 1 0 24.57,6.8025 c 0.7138,-2.5733 17.4648,-63.9244 17.4648,-139.4034 C 472.75,168.1217 439.6465,53.2306 438.2354,48.4161 Z"
       id="path1" />
    <path
       d="m 405.8955,242.92 a 12.7524,12.7524 0 0 0 -11.8867,13.5551 c 1.4858,22.5574 2.2329,45.2725 2.2329,67.5227 0,12.4388 -0.5479,25.3423 -1.627,38.3538 A 12.7518,12.7518 0 0 0 406.269,376.11 c 0.357,0.0332 0.7139,0.0457 1.0708,0.0457 A 12.753,12.753 0 0 0 420.0317,364.46 c 1.1372,-13.7129 1.71,-27.3262 1.71,-40.4622 0,-22.8022 -0.772,-46.0818 -2.2827,-69.1911 A 12.6588,12.6588 0 0 0 405.8955,242.92 Z"
       id="path2" />
    <path
       d="M 408.9,180.2326 A 12.7482,12.7482 0 1 0 387.5342,166.32 l -12.252,18.8221 a 42.6,42.6 0 0 1 -42.11,18.83 L 278.491,195.562 a 12.6467,12.6467 0 0 0 -2.9364,-0.5312 8.4285,8.4285 0 0 1 -6.8046,-8.2738 v -49.7591 a 12.75,12.75 0 0 0 -25.5,0 v 49.7591 a 8.4293,8.4293 0 0 1 -6.8149,8.2748 12.6508,12.6508 0 0 0 -2.91,0.5261 l -54.7063,8.4149 a 42.5894,42.5894 0 0 1 -42.1015,-18.8262 l -12.26,-18.8262 a 12.7482,12.7482 0 0 0 -21.3662,13.9122 l 12.26,18.8261 a 68.06,68.06 0 0 0 67.3525,30.1153 l 40.375,-6.2111 c -13.5925,136.3818 -26.4753,190.5963 -42.6162,232.4447 a 12.75,12.75 0 1 0 23.79,9.1807 c 17.2221,-44.652 30.8188,-101.9969 44.9965,-247.1838 a 33.7678,33.7678 0 0 0 6.7485,-4.083 33.7238,33.7238 0 0 0 6.7444,4.0809 c 14.186,145.217 27.7827,202.5578 44.9965,247.1859 a 12.75,12.75 0 1 0 23.79,-9.1807 C 315.3957,413.58 302.5212,359.3717 288.9121,222.9629 l 40.3833,6.2111 a 68.06,68.06 0 0 0 67.3525,-30.1153 z"
       id="path3" />
    <path
       d="m 106.0879,242.92 a 12.73,12.73 0 0 0 -13.5552,11.8908 c -1.5107,23.2422 -2.2827,46.5176 -2.2827,69.187 0,13.0281 0.5728,26.6372 1.71,40.4539 a 12.7511,12.7511 0 0 0 12.6919,11.7041 c 0.3486,0 0.7055,-0.0125 1.0625,-0.0415 A 12.7579,12.7579 0 0 0 117.377,362.36 c -1.0791,-13.1235 -1.627,-26.0313 -1.627,-38.3621 0,-22.1174 0.7471,-44.8366 2.2329,-67.5268 A 12.7472,12.7472 0 0 0 106.0879,242.92 Z"
       id="path4" />
    <path
       d="m 64.75,323.9979 c 0,-152.008 33.1533,-267.2768 33.4854,-268.4223 a 12.748389,12.748389 0 0 0 -24.4708,-7.16 C 72.3535,53.2306 39.25,168.1217 39.25,323.9979 c 0,75.479 16.751,136.83 17.4648,139.4034 a 12.7473,12.7473 0 0 0 24.57,-6.8025 C 81.1274,456.0011 64.75,395.8578 64.75,323.9979 Z"
       id="path5" />
  </g>
</svg>
