<?xml version="1.0"?>
<svg xmlns="http://www.w3.org/2000/svg" viewBox="0 0 50 50">
    <path d="M 21.5 3 A 2.5 2.5 0 0 0 19 5.5 L 19 18.667969 L 14.080078 37.849609 L 14.087891 37.851562 A 2.5 2.5 0 0 0 14 38.5 A 2.5 2.5 0 0 0 16.5 41 A 2.5 2.5 0 0 0 18.955078 38.955078 L 22 27 L 29 27 L 25.121094 43.71875 L 25.126953 43.720703 A 2.5 2.5 0 0 0 25 44.5 A 2.5 2.5 0 0 0 27.5 47 A 2.5 2.5 0 0 0 29.958984 44.935547 L 33.8125 28.328125 L 38.066406 45.089844 L 38.074219 45.087891 A 2.5 2.5 0 0 0 40.5 47 A 2.5 2.5 0 0 0 43 44.5 A 2.5 2.5 0 0 0 42.916016 43.869141 L 42.917969 43.869141 L 37.867188 24.585938 C 37.198143 20.843826 33.934398 18 30 18 L 24 18 L 24 5.5 A 2.5 2.5 0 0 0 21.5 3 z M 11 15 A 5 5 0 0 0 6 20 A 5 5 0 0 0 11 25 A 5 5 0 0 0 16 20 A 5 5 0 0 0 11 15 z"/>
</svg>
