<?xml version="1.0" encoding="UTF-8" standalone="no"?>
<svg
   viewBox="0 0 99.557983 309.41901"
   x="0px"
   y="0px"
   version="1.1"
   id="svg2"
   sodipodi:docname="spine.svg"
   width="99.557983"
   height="309.41901"
   inkscape:version="1.4.2 (ebf0e940, 2025-05-08)"
   xmlns:inkscape="http://www.inkscape.org/namespaces/inkscape"
   xmlns:sodipodi="http://sodipodi.sourceforge.net/DTD/sodipodi-0.dtd"
   xmlns="http://www.w3.org/2000/svg"
   xmlns:svg="http://www.w3.org/2000/svg"
   xmlns:rdf="http://www.w3.org/1999/02/22-rdf-syntax-ns#"
   xmlns:cc="http://creativecommons.org/ns#"
   xmlns:dc="http://purl.org/dc/elements/1.1/">
  <defs
     id="defs2" />
  <sodipodi:namedview
     id="namedview2"
     pagecolor="#ffffff"
     bordercolor="#000000"
     borderopacity="0.25"
     inkscape:showpageshadow="2"
     inkscape:pageopacity="0.0"
     inkscape:pagecheckerboard="0"
     inkscape:deskcolor="#d1d1d1"
     inkscape:zoom="2.3741176"
     inkscape:cx="83.61001"
     inkscape:cy="197.33647"
     inkscape:window-width="976"
     inkscape:window-height="1186"
     inkscape:window-x="0"
     inkscape:window-y="25"
     inkscape:window-maximized="0"
     inkscape:current-layer="svg2" />
  <title
     id="title1">37_spine</title>
  <path
     d="m 48.616236,302.76126 a 11.033,11.033 0 0 0 10.258,6.657 q 0.474,0 0.957,-0.038 a 11.666,11.666 0 0 0 10.558,-8.754 30.091,30.091 0 0 1 14.449,-18.817 22.627,22.627 0 0 0 10.3,-13.921 110.338,110.338 0 0 0 2.72,-15.579 171.083,171.083 0 0 0 1.1,-38.369 c 0,-0.053 -0.021,-0.1 -0.028,-0.155 a 3.9,3.9 0 0 0 -0.111,-0.616 4.04,4.04 0 0 0 -0.165,-0.429 c -0.04,-0.1 -0.07,-0.2 -0.118,-0.3 a 3.879,3.879 0 0 0 -0.324,-0.512 c -0.033,-0.047 -0.057,-0.1 -0.093,-0.143 a 4,4 0 0 0 -1.22,-1.04 v 0 a 3.9,3.9 0 0 0 -0.715,-0.307 c -0.035,-0.011 -0.071,-0.014 -0.106,-0.024 a 3.887,3.887 0 0 0 -0.648,-0.138 4.038,4.038 0 0 0 -1.554,0.128 c -0.083,0.023 -0.158,0.063 -0.239,0.092 a 3.982,3.982 0 0 0 -0.487,0.194 c -0.1,0.053 -0.194,0.123 -0.291,0.184 a 3.925,3.925 0 0 0 -0.365,0.237 3.983,3.983 0 0 0 -0.492,0.471 c -0.023,0.026 -0.052,0.045 -0.075,0.072 -9.012,10.565 -26.887,9.986 -33.941,9.286 q -0.432,-4.062 -1.061,-8.013 l 0.24,-0.067 a 3.006,3.006 0 0 1 2.528,0.424 l 1.653,1.143 a 4,4 0 1 0 4.549,-6.58 l -1.648,-1.138 a 10.978,10.978 0 0 0 -9.236,-1.548 l -3.707,1.037 c -0.042,0.012 -0.079,0.034 -0.12,0.047 -0.041,0.013 -0.072,0.013 -0.106,0.024 l -7.4,2.552 a 4,4 0 0 0 -2.553,2.721 c -0.75,2.729 -2.248,3.4 -2.5,3.5 -2.425,0.69 -4.418,0.331 -5.923,-1.065 a 6.822,6.822 0 0 1 -2.038,-5.963 c 0.664,-3.219 2.214,-3.651 3.76,-3.585 a 27.384,27.384 0 0 0 8.145,-0.889 65.381,65.381 0 0 0 8.272,-3.021 4,4 0 0 0 2.206,-4.81 c -0.053,-0.177 -0.115,-0.345 -0.169,-0.521 a 62.08,62.08 0 0 0 6.862,0.386 c 8.095,0 18.41,-1.656 27.23,-8.245 0.777,3.623 1.514,7.507 2.162,11.611 a 4,4 0 0 0 3.947,3.377 4.087,4.087 0 0 0 0.629,-0.049 4,4 0 0 0 3.327,-4.576 c -1.1,-6.935 -2.438,-13.263 -3.8,-18.8 l -0.012,-0.052 c -2.049,-8.306 -4.146,-14.808 -5.532,-18.759 a 91.633,91.633 0 0 1 -2.841,-9.563 178.464,178.464 0 0 1 -3.229,-61.382001 c 0,-0.022 0,-0.042 0,-0.063 a 4.121,4.121 0 0 0 0.008,-0.445 c 0,-0.126 0,-0.253 -0.009,-0.376 0,-0.026 0,-0.051 0,-0.077 -0.013,-0.1 -0.048,-0.2 -0.068,-0.3 a 3.92,3.92 0 0 0 -0.093,-0.406 3.686,3.686 0 0 0 -0.149,-0.374 c -0.049,-0.113 -0.093,-0.228 -0.152,-0.336 a 3.841,3.841 0 0 0 -0.232,-0.358 c -0.064,-0.094 -0.125,-0.188 -0.2,-0.276 a 3.853,3.853 0 0 0 -0.3,-0.313 c -0.079,-0.078 -0.156,-0.158 -0.242,-0.229 a 4.185,4.185 0 0 0 -0.361,-0.255 c -0.091,-0.059 -0.178,-0.121 -0.274,-0.173 a 3.944,3.944 0 0 0 -0.435,-0.194 c -0.092,-0.036 -0.18,-0.078 -0.275,-0.107 a 3.883,3.883 0 0 0 -0.5,-0.112 c -0.075,-0.013 -0.145,-0.04 -0.221,-0.049 -0.021,0 -0.04,0 -0.06,0 a 4.1,4.1 0 0 0 -0.43,-0.007 c -0.137,0 -0.275,0 -0.409,0.011 -0.021,0 -0.041,0 -0.062,0 -19.962,2.49 -30.975,-2.2 -35.174,-4.64 0.6,-1.9 1.219,-3.8 1.887,-5.673 0,-0.006 0.086,-0.239 0.237,-0.646 l 2.373,1.152 a 4.0012826,4.0012826 0 0 0 3.493,-7.2 l -6.299,-3.045 v 0 l -3.913,-1.936 a 4,4 0 0 0 -3.732,0.095 c -2.424,1.357 -3.925,0.78 -4.168,0.67 -2.161,-1.223 -3.289,-2.866 -3.351,-4.885 a 6.717,6.717 0 0 1 2.768,-5.553 c 2.706,-1.756 4.049,-0.965 5.1,0.151 a 27.123,27.123 0 0 0 6.3,5.129 c 0.8,0.455 1.668,0.917 2.59,1.375 a 4,4 0 0 0 5.427,-1.943 c 0.08,-0.178 0.161,-0.348 0.241,-0.525 a 52.7,52.7 0 0 0 26.57,9.049 c -0.537,2.313 -1.058,4.717 -1.545,7.234 a 4,4 0 1 0 7.853,1.521 173.179,173.179 0 0 1 10.094,-34.023 48.333,48.333 0 0 0 3.1,-10.1 43.743,43.743 0 0 0 0.31,-15.752 18.629,18.629 0 0 0 -18.4,-15.15199960318 h -7.832 a 9.565,9.565 0 0 0 -7.808,3.95900000318 9.992,9.992 0 0 0 -1.416,8.9119996 11.053,11.053 0 0 1 -0.352,7.666 12.612,12.612 0 0 0 -3.36,-2.517 11.509,11.509 0 0 0 -10.825,0.124 11.144,11.144 0 0 0 -5.865,9.413 16.147,16.147 0 0 0 4.755,12.51 21.578,21.578 0 0 0 2.906,2.485 c -1.1,2.124 -2.189,4.352 -3.278,6.638 -0.022,0.048 -0.048,0.095 -0.068,0.143 -0.179,0.376 -0.359,0.738 -0.537,1.118 a 22.306,22.306 0 0 1 -3.03,-2.742 c -4.129,-4.4 -9.843,-4.917 -15.283,-1.387 a 14.8,14.8 0 0 0 -6.411,12.511 c 0.15,4.87 2.787,8.993 7.425,11.611 a 11.423,11.423 0 0 0 8.569,0.772 l -0.176,0.482 q -1.518,4.266 -2.794,8.6 c -0.02,0.054 -0.031,0.11 -0.049,0.165 -0.561,1.9 -1.1,3.8 -1.588,5.7 a 27.732,27.732 0 0 1 -2.147,-1.811 c -4.678,-4.337 -10.75,-4.457 -16.243,-0.325 a 15.74,15.74 0 0 0 -5.87,13.747 c 0.519,5.143001 3.617,9.316001 8.727,11.752001 0.893,0.431 5.39,2.294 11.125,-0.708 l 0.223,0.049 c -0.509,5.147 -0.791,10.612 -0.812,15.753 l -1.5,0.028 c -4.485,-4.951 -9.5,-4.821 -10.488,-4.733 -6,0.447 -10.67,3.382 -13.159,8.266 a 16.72,16.72 0 0 0 0.515,15.877 c 3.833,6.187 9.866,8.4 16.139,5.922 a 23.484,23.484 0 0 1 6.783,-1.718 c 1.2,-0.094 2.4,-0.137 3.519,-0.151 0.632,3.972 1.427,7.881 2.375,11.7 v 0.021 q 0.431,1.735 0.9,3.447 l -2.236,0.648 a 12.386,12.386 0 0 0 -10.619,-1.665 c -5.349,1.871 -8.885,5.689 -9.957,10.751 a 15.749,15.749 0 0 0 4.356,14.314 c 5.015,4.7 11.071,5.241 16.2,1.432 a 21.388,21.388 0 0 1 5.551,-3.115 c 1.647,-0.584 3.332,-1.06 4.782,-1.425 a 88.768,88.768 0 0 1 4.215,10.329 c -1.169,0.437 -2.509,0.9 -3.875,1.281 a 19.32,19.32 0 0 1 -5.781,0.593 c -6.085,-0.168 -10.478,3.573 -11.8,9.966 a 14.9,14.9 0 0 0 4.43,13.442 c 3.594,3.337 8.413,4.364 13.57,2.893 a 11.781,11.781 0 0 0 7.286,-6.975 l 1.1,-0.381 c 0.739,4.91 1.243,9.973 1.5,15.133 -0.446,-0.009 -0.88,-0.023 -1.3,-0.044 a 19.541,19.541 0 0 1 -5.672,-1.275 c -5.706,-2.073 -11.071,0.059 -14.352,5.7 a 14.9,14.9 0 0 0 -0.07,14.154 c 2.348,4.306 6.591,6.81 11.948,7.055 a 11.35,11.35 0 0 0 7.33,-2.6 c -3.043,11.087 -7.246,32.575 0.022,49.271 z m 21.126,-294.0850006 a 1.6,1.6 0 0 1 1.347,-0.676 h 7.832 a 10.63,10.63 0 0 1 10.531,8.6089996 35.863,35.863 0 0 1 -0.311,12.854 c -0.091,0.5 -0.209,1 -0.326,1.508 a 102.593,102.593 0 0 0 -18.893,-10.609 19.046,19.046 0 0 0 -0.437,-9.922 1.944,1.944 0 0 1 0.257,-1.7639996 z m -20.3,19.5159996 c 0.176,-2.215 1.175,-2.739 1.6,-2.962 a 3.482,3.482 0 0 1 3.48,-0.083 5.074,5.074 0 0 1 1.82,1.666 12.235,12.235 0 0 0 4.162,3.879 4,4 0 0 0 5.393,-1.531 l 0.831,-1.459 a 95.95,95.95 0 0 1 19.392,11.191 169.951,169.951 0 0 0 -6.608,19.478 c -13.1,-0.583 -21.487,-5.717 -25.11,-8.507 q 0.961,-1.957 1.927,-3.819 l 3.8,1.512 a 4.0002564,4.0002564 0 0 0 2.957,-7.434 l -7.043,-2.8 a 13.109,13.109 0 0 1 -4.11,-2.855 8.168,8.168 0 0 1 -2.495,-6.276 z m -21.779,72.487001 a 4.01,4.01 0 0 0 -3.039,0.564 c -2.564,1.682 -4.326,1.241 -4.744,1.1 v 0 l -0.059,-0.022 v 0 c -2.564,-1.22 -3.983,-3.016001 -4.217,-5.336001 a 7.679,7.679 0 0 1 2.721,-6.552 c 2.4,-1.807 4.195,-1.866 5.994,-0.2 a 29.179,29.179 0 0 0 7.142,5.029 c 0.487,0.235 0.978,0.46 1.467,0.677 a 4,4 0 0 0 5.527,-2.788 c 0.386,-1.734 0.812,-3.47 1.261,-5.206 4.905,2.494 13.485,5.476 26.483,5.476 2.19,0 4.523,-0.1 6.969,-0.284 a 192.6,192.6 0 0 0 -0.813,19.714001 c -13.6,6.02 -28.177,5.61 -37.242,4.434 0.11,-2.164 0.268,-4.324 0.461,-6.443 l 3.713,1.024 a 4,4 0 1 0 2.128,-7.711 l -8.257,-2.278 c -0.036,-0.01 -0.071,-0.009 -0.107,-0.018 -0.036,-0.009 -0.072,-0.027 -0.111,-0.036 z m -3.089,39.614 a 31.283,31.283 0 0 0 -9.1,2.256 c -2.626,1.034 -4.6,0.207 -6.4,-2.7 a 8.7,8.7 0 0 1 -0.188,-8.03 c 1.207,-2.368 3.441,-3.687 6.641,-3.923 h 0.067 c 0,0 0,0 0.006,0 0.476,0.008 2.6,0.217 4.668,3.118 a 4.021,4.021 0 0 0 3.333,1.676 l 7.422,-0.142 a 4,4 0 0 0 3.922,-4.1 c -0.025,-1.023 -0.034,-2.074 -0.034,-3.136 a 93.284,93.284 0 0 0 11.108,0.675 75.024,75.024 0 0 0 26.628,-4.607 182.124,182.124 0 0 0 3.459,26.572 c -12.234,9.551 -31.064,8.305 -37.822,7.476 q -0.815,-3.59 -1.439,-7.274 h 1.343 a 4,4 0 0 0 0,-8 h -5.94 a 71.566,71.566 0 0 0 -7.674,0.139 z m 8.041,37.819 a 29.228,29.228 0 0 0 -7.651,4.235 c -1.976,1.468 -3.755,1.214 -5.953,-0.847 a 7.7,7.7 0 0 1 -2,-6.821 c 0.485,-2.286 2.092,-3.921 4.779,-4.86 v 0 c 0.015,0 0.035,-0.009 0.06,-0.015 v 0 c 0.432,-0.1 2.235,-0.349 4.608,1.6 a 4,4 0 0 0 3.656,0.754 l 7.96,-2.306 a 4,4 0 0 0 2.707,-5.03 c -0.113,-0.363 -0.207,-0.739 -0.317,-1.1 2.021,0.172 4.436,0.3 7.122,0.3 8.927,0 20.764,-1.474 30.516,-7.707 0.578,2.033 1.246,4.149 2.04,6.413 1.21,3.449 2.984,8.922 4.776,15.884 -11.751,11.17 -29.3,9.091 -35.046,8.027 q -0.894,-2.218 -1.875,-4.329 a 8.077,8.077 0 0 1 2.218,0.183 l 2.287,0.522 a 4.0001513,4.0001513 0 1 0 1.779,-7.8 l -2.287,-0.522 a 16.1,16.1 0 0 0 -8.238,0.289 l -2.525,0.766 a 69.2,69.2 0 0 0 -8.62,2.361 z m 6.022,36.927 v 0 l 0.052,-0.016 z m 48.748,50.911 a 14.572,14.572 0 0 1 -6.621,8.981 38.323,38.323 0 0 0 -18.117,23.695 3.785,3.785 0 0 1 -3.443,2.779 3.113,3.113 0 0 1 -3.249,-1.838 c -6.573,-15.1 -1.922,-35.961 0.822,-45.471 a 36.871,36.871 0 0 0 19.827,5.631 44.852,44.852 0 0 0 12.438,-1.823 c -0.454,2.711 -1,5.405 -1.661,8.046 z m -42.269,-20.363 c -1.578,2.349 -3.211,2.511 -3.482,2.521 -2.519,-0.117 -4.294,-1.09 -5.278,-2.892 a 6.826,6.826 0 0 1 -0.038,-6.3 c 1.651,-2.84 3.237,-2.739 4.706,-2.2 a 27.362,27.362 0 0 0 8,1.745 59.24,59.24 0 0 0 6.067,-0.038 4,4 0 0 0 3.783,-4.1 c -0.046,-1.763 -0.126,-3.516 -0.226,-5.261 1.7,0.138 3.747,0.245 6.028,0.245 7.8,0 18.3,-1.265 26.757,-6.74 a 159.262,159.262 0 0 1 -1.191,26.494 c -5.094,2.054 -19.868,6.5 -32.83,-4.36 -0.05,-0.042 -0.108,-0.07 -0.16,-0.109 a 3.88,3.88 0 0 0 -3.7,-0.813 l -5.156,0.044 a 4,4 0 0 0 -3.284,1.764 z"
     id="path1" />
  <metadata
     id="metadata2">
    <rdf:RDF>
      <cc:Work
         rdf:about="">
        <dc:title>37_spine</dc:title>
      </cc:Work>
    </rdf:RDF>
  </metadata>
</svg>
