<svg xmlns="http://www.w3.org/2000/svg" xmlns:xlink="http://www.w3.org/1999/xlink" version="1.1" x="0px" y="0px" viewBox="0 0 512 640" enable-background="new 0 0 512 512" xml:space="preserve"><g><g><path d="M355.101,294.722c21.465-1.797,38.384-19.842,38.384-41.763s-16.919-39.966-38.384-41.763v-24.411    c0-4.461-1.046-8.781-2.978-12.668c1.899-3.83,2.978-8.11,2.978-12.593v-22.875c21.465-1.797,38.384-19.842,38.384-41.763    s-16.919-39.966-38.384-41.763V30.713c0-8.434-3.704-16.379-10.162-21.801c-6.459-5.422-14.932-7.696-23.241-6.233    c-43.594,7.67-87.802,7.67-131.396,0c-8.31-1.463-16.779,0.81-23.24,6.233c-6.458,5.422-10.162,13.367-10.162,21.801v24.411    c-21.465,1.797-38.384,19.842-38.384,41.763s16.919,39.966,38.384,41.763v22.875c0,4.482,1.079,8.763,2.978,12.593    c-1.932,3.887-2.978,8.207-2.978,12.668v24.411c-21.465,1.797-38.384,19.842-38.384,41.763s16.919,39.966,38.384,41.763v22.875    c0,4.542,1.109,8.877,3.056,12.746c-1.982,3.927-3.056,8.303-3.056,12.824v24.41c-21.465,1.797-38.384,19.842-38.384,41.764    c0,21.921,16.919,39.966,38.384,41.763v22.875c0,13.437,9.52,25.159,22.638,27.873c25.369,5.247,50.915,7.871,76.463,7.871    c25.547,0,51.095-2.624,76.464-7.871c13.117-2.714,22.637-14.437,22.637-27.873v-22.875c21.465-1.797,38.384-19.842,38.384-41.763    c0-21.922-16.919-39.967-38.384-41.764v-24.41c0-4.521-1.073-8.897-3.056-12.824c1.947-3.869,3.056-8.203,3.056-12.746V294.722z     M150.516,96.887c0-5.464,4.445-9.909,9.909-9.909c15.701,0,28.475-12.774,28.475-28.476V34.901    c44.552,7.376,89.653,7.376,134.201,0v23.601c0,15.701,12.773,28.476,28.475,28.476c5.464,0,9.909,4.445,9.909,9.909    s-4.445,9.909-9.909,9.909c-15.701,0-28.475,12.774-28.475,28.476v23.272c-0.468,0.059-0.936,0.125-1.403,0.208    c-43.595,7.669-87.801,7.671-131.394,0c-0.468-0.082-0.936-0.149-1.404-0.208v-23.273c0-15.701-12.773-28.476-28.475-28.476    C154.961,106.796,150.516,102.351,150.516,96.887z M150.516,252.959c0-5.464,4.445-9.909,9.909-9.909    c15.701,0,28.475-12.774,28.475-28.476v-23.362c22.287,4.037,44.693,6.056,67.101,6.056c22.406,0,44.814-2.02,67.101-6.056v23.362    c0,15.701,12.773,28.476,28.475,28.476c5.464,0,9.909,4.445,9.909,9.909s-4.445,9.909-9.909,9.909    c-15.701,0-28.475,12.774-28.475,28.476v23.373c-3.464,0.687-6.932,1.3-10.402,1.88c-37.664,5.705-75.721,5.706-113.385,0.002    c-3.474-0.58-6.946-1.195-10.414-1.882v-23.373c0-15.701-12.773-28.476-28.475-28.476    C154.961,262.868,150.516,258.423,150.516,252.959z M361.484,409.34c0,5.464-4.445,9.909-9.909,9.909    c-15.701,0-28.475,12.774-28.475,28.476v23.373c-44.543,8.825-89.66,8.826-134.201,0v-23.373    c0-15.701-12.773-28.476-28.475-28.476c-5.464,0-9.909-4.445-9.909-9.909c0-5.465,4.445-9.91,9.909-9.91    c15.701,0,28.475-12.773,28.475-28.475v-23.601c1.179,0.195,2.36,0.364,3.54,0.549c21.12,3.622,42.337,5.438,63.561,5.438    c21.222-0.001,42.449-1.818,63.57-5.439c1.177-0.184,2.354-0.353,3.53-0.547v23.601c0,15.701,12.773,28.475,28.475,28.475    C357.039,399.43,361.484,403.875,361.484,409.34z"/><path d="M225.4,290.339c8.837,0,16-7.163,16-16v-35.061c0-8.837-7.163-16-16-16s-16,7.163-16,16v35.061    C209.4,283.176,216.563,290.339,225.4,290.339z"/><path d="M225.4,379.658c-8.837,0-16,7.163-16,16v35.062c0,8.837,7.163,16,16,16s16-7.163,16-16v-35.062    C241.4,386.821,234.237,379.658,225.4,379.658z"/><path d="M225.4,134.267c8.837,0,16-7.163,16-16V83.205c0-8.837-7.163-16-16-16s-16,7.163-16,16v35.062    C209.4,127.104,216.563,134.267,225.4,134.267z"/></g></g><text x="0" y="527" fill="#000000" font-size="5px" font-weight="bold" font-family="'Helvetica Neue', Helvetica, Arial-Unicode, Arial, Sans-serif">Created by iconfield</text><text x="0" y="532" fill="#000000" font-size="5px" font-weight="bold" font-family="'Helvetica Neue', Helvetica, Arial-Unicode, Arial, Sans-serif">from the Noun Project</text></svg>