<?xml version="1.0" encoding="UTF-8" standalone="no"?>
<!-- Created with Inkscape (http://www.inkscape.org/) -->

<svg
   width="2.6618505mm"
   height="3.7828176mm"
   viewBox="0 0 2.6618505 3.7828176"
   version="1.1"
   id="svg1"
   xml:space="preserve"
   inkscape:version="1.4.2 (ebf0e940, 2025-05-08)"
   sodipodi:docname="wrist.svg"
   xmlns:inkscape="http://www.inkscape.org/namespaces/inkscape"
   xmlns:sodipodi="http://sodipodi.sourceforge.net/DTD/sodipodi-0.dtd"
   xmlns="http://www.w3.org/2000/svg"
   xmlns:svg="http://www.w3.org/2000/svg"><sodipodi:namedview
     id="namedview1"
     pagecolor="#ffffff"
     bordercolor="#000000"
     borderopacity="0.25"
     inkscape:showpageshadow="2"
     inkscape:pageopacity="0.0"
     inkscape:pagecheckerboard="0"
     inkscape:deskcolor="#d1d1d1"
     inkscape:document-units="mm"
     inkscape:zoom="20.339121"
     inkscape:cx="10.25118"
     inkscape:cy="9.8086835"
     inkscape:window-width="1152"
     inkscape:window-height="1186"
     inkscape:window-x="1163"
     inkscape:window-y="173"
     inkscape:window-maximized="0"
     inkscape:current-layer="layer1" /><defs
     id="defs1" /><g
     inkscape:label="Layer 1"
     inkscape:groupmode="layer"
     id="layer1"
     transform="translate(-131.1011,-147.98993)"><path
       style="stroke-width:0.264583"
       d="m 133.15639,149.90881 c -0.10583,-0.0264 -0.10583,0 -0.13229,-0.0794 0,0 0.0529,-0.29104 0.26459,-0.21167 0.1852,0.13229 -0.0265,0.34396 -0.1323,0.29104 z"
       id="path25" /><path
       style="stroke-width:0.264583"
       d="m 133.0241,150.33215 c -0.13229,0.0265 -0.37041,0.0265 -0.34396,-0.21167 0,0 0.15875,-0.21167 0.39688,-0.10583 0.23812,0.10583 0.0794,0.26458 -0.0529,0.3175 z"
       id="path24" /><path
       style="stroke-width:0.264583"
       d="m 132.41556,150.04111 c -0.10583,-0.10584 -0.26458,-0.1323 -0.26458,-0.1323 0,0 -0.13229,0 -0.0529,-0.13229 0.0794,-0.13229 0.18521,-0.13229 0.18521,-0.13229 0,0 0.26458,0.10583 0.39687,0.13229 0.1323,0.0265 0,0.23813 -0.0529,0.29104 -0.0529,0.0529 -0.10584,0.0794 -0.21167,-0.0264 z"
       id="path22" /><path
       style="stroke-width:0.264583"
       d="m 132.1245,150.01465 c 0,0 0.26458,0.0265 0.21167,0.21166 -0.0529,0.18521 -0.26459,0.10584 -0.26459,0.10584 0,0 -0.21166,-0.0794 -0.13229,-0.21167 0.0794,-0.13229 0.18521,-0.10583 0.18521,-0.10583 z"
       id="path20" /><path
       style="stroke-width:0.264583"
       d="m 131.72762,149.67069 c 0,0 0.0265,-0.23813 0.23813,-0.34396 0,0 0.21167,0.0265 0.23812,0.10583 0.0265,0.0794 0.0794,0.15875 -0.0529,0.18521 -0.13229,0.0265 -0.15875,0.10584 -0.15875,0.15875 -0.0265,0.0794 -0.15875,0.10584 -0.26459,-0.10583 z"
       id="path19" /><path
       style="stroke-width:0.264583"
       d="m 132.65367,149.43256 c 0,0.10584 -0.0794,0.21167 -0.15875,0.15875 -0.10584,-0.0264 -0.26459,-0.15875 -0.1323,-0.34395 0,0 0.15875,-0.0265 0.23813,0 0.0529,0.0529 0.0529,0.10583 0.0529,0.1852 z"
       id="path12" /><path
       style="stroke-width:0.264583"
       d="m 132.81242,149.35319 c 0,0 0.10583,0.0265 0.15875,0 0.0794,-0.0529 0.13229,0.15875 0.13229,0.15875 0,0 0.0265,0.0529 -0.0529,0.10583 -0.10583,0.0265 -0.10583,0.21167 -0.10583,0.21167 0,0 -0.0529,0.13229 -0.13229,0.0265 -0.0529,-0.10584 -0.15875,-0.50271 0,-0.50271 z"
       id="path10" /><path
       style="stroke-width:0.220448"
       d="m 133.74258,148.60137 c 0,0 -0.23561,0.35239 -0.20996,0.56566 0.0447,0.2385 -0.12132,0.22272 -0.18356,0.2168 -0.083,-0.008 -0.1969,-0.15928 -0.0583,-0.33351 0.22858,-0.25937 0.153,-0.64135 0.153,-0.64135 0.0988,-0.20143 0.39946,-0.0324 0.29888,0.19239 z"
       id="path26" /><path
       style="stroke-width:0.250295"
       d="m 131.51343,149.18817 c -0.003,-0.13635 -0.28194,-0.45569 -0.28194,-0.45569 0,0 -0.22229,-0.1235 -0.0864,-0.25946 0.13588,-0.13591 0.38366,-0.15324 0.35909,0.0559 -0.0524,0.25895 0.22786,0.50994 0.28309,0.52378 0,0 0.16766,0.15515 0.003,0.25008 -0.16334,0.14034 -0.27494,0.0444 -0.27727,-0.1146 z"
       id="path18" /><path
       style="stroke-width:0.233414"
       d="m 131.84775,148.15332 c 0.0467,-0.11671 0.30344,-0.0934 0.35013,-0.0234 0.0234,0.0467 0.07,0.07 -0.0234,0.23342 -0.0934,0.16339 0.0934,0.5135 0.11671,0.63022 0.0234,0.1167 0,0.14005 -0.0934,0.18672 -0.14005,0.0467 -0.23342,-0.0934 -0.21007,-0.21006 0.0234,-0.11671 0.0234,-0.44349 -0.11671,-0.63023 0.0234,-0.0234 -0.0701,-0.1167 -0.0234,-0.18672 z"
       id="path14" /><path
       style="stroke-width:0.233414"
       d="m 132.75807,148.17666 c -0.11671,0.25676 -0.0234,0.65356 0,0.77027 0.0234,0.1167 -0.0234,0.14005 -0.21007,0.14005 -0.18674,0 -0.11671,-0.14005 -0.11671,-0.14005 0.18673,-0.53685 -0.0467,-0.79361 -0.0467,-0.79361 -0.1167,-0.21008 0.49018,-0.23342 0.37347,0.0234 z"
       id="path11" /><path
       style="stroke-width:0.233414"
       d="m 132.88077,148.93608 c 0.1616,-0.34072 0.0699,-0.74402 0.0699,-0.74402 0.0131,-0.20966 0.42516,-0.067 0.32324,0.067 -0.10341,0.15725 -0.15286,0.57512 -0.13832,0.71635 0.0146,0.14124 -0.0116,0.18637 -0.198,0.17473 -0.18637,-0.0116 -0.0568,-0.21402 -0.0568,-0.21402 z"
       id="path9" /><path
       d="m 132.42665,151.61737 c 0.008,-0.31998 -0.0274,-0.63995 0.0674,-0.95362 0.0253,-0.0821 -0.0105,-0.15156 -0.0842,-0.18103 -0.0842,-0.0337 -0.17683,-0.0632 -0.26734,-0.061 -0.13895,0 -0.17262,0.0632 -0.13473,0.19788 0.04,0.14525 0.0926,0.28629 0.11157,0.43365 0.0274,0.22736 0.0336,0.45892 0.0485,0.68206 0.0863,0.0147 0.17262,0.0253 0.26103,0.0336 0,-0.0526 0,-0.10314 0,-0.15156 z"
       stroke-width="0px"
       id="path27" /><path
       d="m 133.10372,150.60481 c 0.04,-0.14946 0.002,-0.19999 -0.15156,-0.19157 -0.0632,0.004 -0.12631,0.006 -0.18946,0.008 -0.13683,0.006 -0.21893,0.10525 -0.17894,0.23366 0.11158,0.35787 0.0947,0.72416 0.099,1.09045 0,0.008 0,0.0189 -0.004,0.0274 0.0947,-0.002 0.18946,-0.0105 0.28418,-0.0232 0.0105,-0.24209 0.0127,-0.46944 0.0358,-0.69259 0.0169,-0.15367 0.0632,-0.30524 0.10525,-0.45681 z"
       stroke-width="0px"
       id="path28" /></g></svg>
